<?xml version="1.0" encoding="UTF-8" standalone="no"?>
<!-- Created with Inkscape (http://www.inkscape.org/) -->

<svg
   width="22.207703mm"
   height="24.995316mm"
   viewBox="0 0 22.207703 24.995316"
   version="1.1"
   id="svg5"
   xml:space="preserve"
   xmlns:inkscape="http://www.inkscape.org/namespaces/inkscape"
   xmlns:sodipodi="http://sodipodi.sourceforge.net/DTD/sodipodi-0.dtd"
   xmlns="http://www.w3.org/2000/svg"
   xmlns:svg="http://www.w3.org/2000/svg"><sodipodi:namedview
     id="namedview7"
     pagecolor="#ffffff"
     bordercolor="#000000"
     borderopacity="0.25"
     inkscape:showpageshadow="2"
     inkscape:pageopacity="0.0"
     inkscape:pagecheckerboard="0"
     inkscape:deskcolor="#d1d1d1"
     inkscape:document-units="mm"
     showgrid="false" /><defs
     id="defs2" /><g
     inkscape:label="Capa 1"
     inkscape:groupmode="layer"
     id="layer1"
     transform="translate(-135.37963,-136.22845)"><g
       id="g18399"
       inkscape:export-filename="g18399.svg"
       inkscape:export-xdpi="96"
       inkscape:export-ydpi="96"><rect
         style="fill:#fd933a;fill-opacity:1;stroke:none;stroke-width:0.314633;stroke-dasharray:none;stroke-opacity:0.95076"
         id="rect17371"
         width="4.2645907"
         height="10.561541"
         x="148.0125"
         y="136.22845"
         ry="2.1322954" /><rect
         style="fill:#fd933a;fill-opacity:1;stroke:none;stroke-width:0.314633;stroke-dasharray:none;stroke-opacity:0.95076"
         id="rect15572"
         width="4.2645907"
         height="10.561541"
         x="140.68985"
         y="136.22845"
         ry="2.1322954" /><rect
         style="fill:#2ca9f7;fill-opacity:1;stroke:none;stroke-width:0.259945;stroke-dasharray:none;stroke-opacity:0.95076"
         id="rect13392"
         width="5.9372711"
         height="5.1781297"
         x="143.51483"
         y="156.04564"
         ry="1.5382283" /><rect
         style="fill:#2583ef;fill-opacity:1;stroke:none;stroke-width:0.730487;stroke-dasharray:none;stroke-opacity:0.95076"
         id="rect10484"
         width="16.643583"
         height="14.587325"
         x="138.16168"
         y="144.04738"
         ry="3.6526132" /><rect
         style="fill:#2ca9f7;fill-opacity:1;stroke:none;stroke-width:0.510683;stroke-dasharray:none;stroke-opacity:0.95076"
         id="rect12664"
         width="22.207701"
         height="5.3431311"
         x="135.37962"
         y="144.04738"
         ry="1.6217196" /><path
         id="rect18243"
         style="fill:#2583ef;fill-opacity:1;stroke-width:0.259945;stroke-opacity:0.95076"
         d="m 146.38694,156.04564 h 1.52693 c 0.85218,0 1.53823,0.68605 1.53823,1.53823 v 2.10167 c 0,0.85218 -0.68605,1.53823 -1.53823,1.53823 h -1.38078 c -0.0496,-5.17813 -0.14615,-5.17813 -0.14615,-5.17813 z"
         sodipodi:nodetypes="csssscc" /><path
         id="rect18171"
         style="fill:#1767de;fill-opacity:1;stroke-width:0.730487;stroke-opacity:0.95076"
         d="m 146.48347,144.04738 h 4.66918 c 2.02355,0 3.65262,1.62906 3.65262,3.65261 v 7.2821 c 0,2.02355 -1.62907,3.65261 -3.65262,3.65261 h -4.66918 c 0,-14.58732 0,0 0,-14.58732 z"
         sodipodi:nodetypes="csssscc" /><path
         id="rect18099"
         style="fill:#2583ef;fill-opacity:1;stroke-width:0.510683;stroke-opacity:0.95076"
         d="m 146.48347,144.04738 h 9.48213 c 0.89844,0 1.62172,0.72329 1.62172,1.62172 v 2.09969 c 0,0.89843 -0.72328,1.62172 -1.62172,1.62172 l -9.48213,-1e-5 z"
         sodipodi:nodetypes="csssscc" /></g></g></svg>
