<?xml version="1.0" encoding="UTF-8" standalone="no"?>
<!-- Created with Inkscape (http://www.inkscape.org/) -->

<svg
   width="25.596355mm"
   height="25.596375mm"
   viewBox="0 0 25.596355 25.596375"
   version="1.1"
   id="svg5"
   xml:space="preserve"
   xmlns:inkscape="http://www.inkscape.org/namespaces/inkscape"
   xmlns:sodipodi="http://sodipodi.sourceforge.net/DTD/sodipodi-0.dtd"
   xmlns="http://www.w3.org/2000/svg"
   xmlns:svg="http://www.w3.org/2000/svg"><sodipodi:namedview
     id="namedview7"
     pagecolor="#ffffff"
     bordercolor="#000000"
     borderopacity="0.25"
     inkscape:showpageshadow="2"
     inkscape:pageopacity="0.0"
     inkscape:pagecheckerboard="0"
     inkscape:deskcolor="#d1d1d1"
     inkscape:document-units="mm"
     showgrid="false" /><defs
     id="defs2" /><g
     inkscape:label="Capa 1"
     inkscape:groupmode="layer"
     id="layer1"
     transform="translate(-51.897458,-129.80612)"><g
       id="g1554"
       inkscape:export-filename="./g1554.svg"
       inkscape:export-xdpi="96"
       inkscape:export-ydpi="96"><path
         id="rect231"
         style="fill:#fd933a;fill-opacity:1;stroke:none;stroke-width:0.6;stroke-dasharray:none;stroke-opacity:1"
         d="m 64.695642,129.80612 -3.748609,3.7486 h -5.300968 v 5.30097 l -3.748608,3.74861 3.748608,3.74861 v 5.30148 h 5.301485 l 3.748092,3.7481 3.748091,-3.7481 h 5.302002 v -5.302 l 3.748085,-3.74809 -3.748085,-3.74809 v -5.30149 H 68.44425 Z" /><path
         id="path1196"
         style="fill:#ff5b1f;fill-opacity:1;stroke:none;stroke-width:0.6;stroke-dasharray:none;stroke-opacity:1"
         d="m 64.695642,129.80612 v 25.59637 l 3.748091,-3.7481 h 5.302002 v -5.302 l 3.748085,-3.74809 -3.748085,-3.74809 v -5.30149 H 68.44425 Z"
         sodipodi:nodetypes="cccccccccc" /><circle
         style="fill:#ffd736;fill-opacity:1;stroke:none;stroke-width:0.51703;stroke-dasharray:none;stroke-opacity:1"
         id="path4089"
         cx="-64.695641"
         cy="-142.60429"
         r="6.3990903"
         transform="scale(-1)" /><path
         id="circle1294"
         style="fill:#ffe780;fill-opacity:1;stroke-width:0.51703"
         d="m 64.69564,136.20522 c 3.534121,0 6.399091,2.86496 6.399091,6.39909 0,3.53412 -2.86497,6.39909 -6.399091,6.39909 0,-12.79818 0,0 0,-12.79818 z"
         sodipodi:nodetypes="cscc" /></g></g></svg>
