<?xml version="1.0" encoding="UTF-8" standalone="no"?>
<!-- Created with Inkscape (http://www.inkscape.org/) -->

<svg
   width="25.596527mm"
   height="22.108902mm"
   viewBox="0 0 25.596527 22.108902"
   version="1.1"
   id="svg5"
   xml:space="preserve"
   xmlns:inkscape="http://www.inkscape.org/namespaces/inkscape"
   xmlns:sodipodi="http://sodipodi.sourceforge.net/DTD/sodipodi-0.dtd"
   xmlns="http://www.w3.org/2000/svg"
   xmlns:svg="http://www.w3.org/2000/svg"><sodipodi:namedview
     id="namedview7"
     pagecolor="#ffffff"
     bordercolor="#000000"
     borderopacity="0.25"
     inkscape:showpageshadow="2"
     inkscape:pageopacity="0.0"
     inkscape:pagecheckerboard="0"
     inkscape:deskcolor="#d1d1d1"
     inkscape:document-units="mm"
     showgrid="false" /><defs
     id="defs2" /><g
     inkscape:label="Capa 1"
     inkscape:groupmode="layer"
     id="layer1"
     transform="translate(-134.51566,-112.31044)"><g
       id="g19363"
       inkscape:export-filename="iconBateri.svg"
       inkscape:export-xdpi="96"
       inkscape:export-ydpi="96"><rect
         style="fill:#2583ef;fill-opacity:1;stroke:none;stroke-width:0.962534;stroke-dasharray:none;stroke-opacity:0.95076"
         id="rect10484-7"
         width="25.596437"
         height="16.468344"
         x="134.51567"
         y="117.951"
         ry="4.1236134" /><rect
         style="fill:#2ca9f7;fill-opacity:1;stroke-width:0.0745069"
         id="rect16617"
         width="5.1178474"
         height="6.5314708"
         x="138.54807"
         y="112.41957"
         ry="1.2240586" /><rect
         style="fill:#ff5b1f;fill-opacity:1;stroke-width:0.0772098"
         id="rect16619"
         width="5.1178474"
         height="7.0139551"
         x="150.46281"
         y="112.31044"
         ry="1.3144808" /><rect
         style="fill:#1767de;fill-opacity:1;stroke-width:0.0651339"
         id="rect20427"
         width="8.3097963"
         height="3.0741813"
         x="136.95209"
         y="116.25021"
         ry="0.57613033" /><path
         id="rect16593"
         style="fill:#2ca9f7;fill-opacity:1;stroke-width:0.147644"
         d="m 137.07949,117.91425 c -1.42048,0 -2.56367,1.14319 -2.56367,2.56367 0,0.10073 0.006,0.20002 0.0176,0.29765 h -0.0176 v 2.26653 h 2.56367 20.46852 2.56418 v -2.26653 h -0.0176 c 0.0112,-0.0976 0.0176,-0.19694 0.0176,-0.29765 0,-1.42048 -1.14371,-2.56367 -2.56418,-2.56367 z" /><rect
         style="fill:#1767de;fill-opacity:1;stroke-width:0.0651339"
         id="rect20356"
         width="8.3097963"
         height="3.0741813"
         x="148.86684"
         y="116.25021"
         ry="0.57613033" /><path
         id="rect19145"
         style="fill:#1767de;stroke-width:0.962534;stroke-opacity:0.95076"
         d="m 147.12753,117.91425 8.86096,0.0367 c 2.28447,0.009 4.12362,1.83913 4.12362,4.12361 v 8.22112 c 0,2.28448 -1.83913,4.12361 -4.12362,4.12361 h -8.86096 z"
         sodipodi:nodetypes="csssscc" /><path
         id="path19066"
         style="fill:#2583ef;fill-opacity:1;stroke-width:0.147644"
         d="m 147.12468,123.0421 h 10.42333 2.56418 v -2.26653 h -0.0176 c 0.0112,-0.0976 0.0176,-0.19694 0.0176,-0.29765 0,-1.42048 -1.14371,-2.56367 -2.56418,-2.56367 h -10.42048 z"
         sodipodi:nodetypes="cccccsscc" /></g></g></svg>
