<?xml version="1.0" encoding="UTF-8" standalone="no"?>
<svg
   viewBox="0 0 25.71875 25.71875"
   width="25.71875"
   height="25.71875"
   version="1.1"
   id="svg6913"
   sodipodi:docname="iconSearch.svg"
   xmlns:inkscape="http://www.inkscape.org/namespaces/inkscape"
   xmlns:sodipodi="http://sodipodi.sourceforge.net/DTD/sodipodi-0.dtd"
   xmlns="http://www.w3.org/2000/svg"
   xmlns:svg="http://www.w3.org/2000/svg">
  <defs
     id="defs6917" />
  <sodipodi:namedview
     id="namedview6915"
     pagecolor="#ffffff"
     bordercolor="#000000"
     borderopacity="0.25"
     inkscape:showpageshadow="2"
     inkscape:pageopacity="0.0"
     inkscape:pagecheckerboard="0"
     inkscape:deskcolor="#d1d1d1"
     showgrid="false" />
  <path
     d="m 10,0 c 5.511719,0 10,4.488281 10,10 0,2.394531 -0.839844,4.589844 -2.25,6.3125 l 7.96875,7.96875 -1.4375,1.4375 L 16.3125,17.75 C 14.589844,19.160156 12.394531,20 10,20 4.488281,20 0,15.511719 0,10 0,4.488281 4.488281,0 10,0 Z m 0,2 c -4.429688,0 -8,3.570313 -8,8 0,4.429688 3.570312,8 8,8 4.429687,0 8,-3.570312 8,-8 0,-4.429687 -3.570313,-8 -8,-8 z"
     id="path6911"
     style="fill:#000000;fill-opacity:1"
     inkscape:export-filename="path6911.svg"
     inkscape:export-xdpi="96"
     inkscape:export-ydpi="96" />
</svg>
