<?xml version="1.0" encoding="UTF-8" standalone="no"?>
<!-- Created with Inkscape (http://www.inkscape.org/) -->

<svg
   width="25.59642mm"
   height="20.536598mm"
   viewBox="0 0 25.59642 20.536598"
   version="1.1"
   id="svg5"
   xml:space="preserve"
   xmlns:inkscape="http://www.inkscape.org/namespaces/inkscape"
   xmlns:sodipodi="http://sodipodi.sourceforge.net/DTD/sodipodi-0.dtd"
   xmlns="http://www.w3.org/2000/svg"
   xmlns:svg="http://www.w3.org/2000/svg"><sodipodi:namedview
     id="namedview7"
     pagecolor="#ffffff"
     bordercolor="#000000"
     borderopacity="0.25"
     inkscape:showpageshadow="2"
     inkscape:pageopacity="0.0"
     inkscape:pagecheckerboard="0"
     inkscape:deskcolor="#d1d1d1"
     inkscape:document-units="mm"
     showgrid="false" /><defs
     id="defs2" /><g
     inkscape:label="Capa 1"
     inkscape:groupmode="layer"
     id="layer1"
     transform="translate(-135.93553,-64.474188)"><g
       id="g20655"
       transform="translate(46.646593,-25.043962)"><rect
         style="fill:#1d79e4;fill-opacity:1;stroke-width:0.264583"
         id="rect5198-6"
         width="25.596422"
         height="16.468344"
         x="89.28894"
         y="93.586403"
         ry="3.0863218" /><rect
         style="fill:#1d79e4;fill-opacity:1;stroke-width:0.065849"
         id="rect16617"
         width="5.1178474"
         height="5.1017151"
         x="93.321327"
         y="89.603394"
         ry="0.95610911" /><rect
         style="fill:#ce6065;fill-opacity:1;stroke-width:0.0682378"
         id="rect16619"
         width="5.1178474"
         height="5.4785824"
         x="105.23607"
         y="89.51815"
         ry="1.0267376" /><path
         fill="#ff5576"
         d="m 99.895805,104.69384 3.079525,-5.087157 c 0.10211,-0.170137 0.3573,-0.068 0.30625,0.11909 l -0.79965,3.998257 h 1.65035 c 0.13611,0 0.22118,0.15314 0.13611,0.27223 l -3.13057,4.28751 c -0.10211,0.15312 -0.34027,0.0341 -0.30624,-0.13611 l 0.78264,-3.19863 h -1.56528 c -0.13612,0 -0.221182,-0.1361 -0.153135,-0.25519 z"
         id="path18509"
         style="fill:#82dffb;fill-opacity:1;stroke-width:0.17014" /><rect
         style="fill:#1e528e;fill-opacity:1;stroke-width:0.147644"
         id="rect16593"
         width="25.596422"
         height="5.1280737"
         x="89.28894"
         y="93.586403"
         ry="2.5640368" /><rect
         style="fill:#1e528e;fill-opacity:1;stroke-width:0.0651339"
         id="rect20356"
         width="8.3097963"
         height="3.0741813"
         x="103.64009"
         y="91.922554"
         ry="0.57613033" /><rect
         style="fill:#1e528e;fill-opacity:1;stroke-width:0.0651339"
         id="rect20427"
         width="8.3097963"
         height="3.0741813"
         x="91.725349"
         y="91.922554"
         ry="0.57613033" /><rect
         style="fill:#1e528e;fill-opacity:1;stroke-width:0.0981563"
         id="rect20645"
         width="25.596422"
         height="2.2665186"
         x="89.28894"
         y="96.44796"
         ry="0" /></g></g></svg>
